<?xml version="1.0" encoding="utf-8"?>
<!-- Generator: Adobe Illustrator 22.0.1, SVG Export Plug-In . SVG Version: 6.00 Build 0)  -->
<svg version="1.1" xmlns="http://www.w3.org/2000/svg" xmlns:xlink="http://www.w3.org/1999/xlink" x="0px" y="0px"
	 viewBox="0 0 646.1 619.7" style="enable-background:new 0 0 646.1 619.7;" xml:space="preserve">
<style type="text/css">
	.st0{fill:#FBC02D;}
	.st1{fill:#FFE57F;}
	.st2{fill:#E5A820;}
	.st3{fill:#D8991D;}
	.st4{fill:#BA7D13;}
	.st5{fill:#FFD600;}
	.st6{display:none;}
	.st7{display:inline;fill:#F9B915;}
	.st8{display:inline;}
	.st9{fill:#FCF34F;}
	.st10{fill:#F8CC45;}
	.st11{fill:#F9B915;}
</style>
<g id="Layer_2">
	<g id="surface1_1_">
		<path class="st0" d="M441.6,414.8c-109,110-192,89-241,64c0,0,9,34,44,68c36,35,134,96,280-50s85-244,50-280c-38-37-70-43-70-43
			S612.6,243.8,441.6,414.8z"/>
		<path class="st1" d="M523.6,496.8c162-162,12-303,15-258c1,24-6,56-31,96C492.6,357.8,648.6,343.8,523.6,496.8z"/>
		<path class="st2" d="M200.6,478.8c0,0,9,34,44,68c36,35,134,96,280-50C407.6,612.8,253.6,531.8,200.6,478.8z"/>
		<path class="st3" d="M215.2,495.8c25,13,50,26,90,14c-31-31-5-108,58-171s140-89,171-58c12-40-2-64-14-89c4,2-71-60-211,80
			C169.2,410.8,217.2,498.8,215.2,495.8z"/>
		<path class="st4" d="M536.6,280.8c12-40-2-64-14-89c3,2-71-60-211,80c-42,42-67,80-82,111C316.6,294.8,456.6,199.8,536.6,280.8z"
			/>
		<path class="st5" d="M294.6,266.8c-88,88-123,193-79,237s149,8,237-79s122-193,78-236C487.6,144.8,381.6,179.8,294.6,266.8z
			 M520.6,283.8c-14,42-44,87-84,127s-85,70-127,84c-36,12-66,10-81-5c-15-15-17-45-5-81c14-42,44-87,84-127s85-70,127-84
			c36-12,66-10,81,5C531.6,217.8,533.6,247.8,520.6,283.8z"/>
	</g>
	<g id="surface1_3_">
		<path class="st3" d="M355.1,443.6C355.1,443.6,355.1,443.6,355.1,443.6C355.2,443.5,355.1,443.5,355.1,443.6z"/>
	</g>
	<g id="surface1_2_">
		<path class="st3" d="M355.1,443.6C355.1,443.6,355.1,443.6,355.1,443.6C355.2,443.5,355.1,443.5,355.1,443.6z"/>
	</g>
	<path class="st3" d="M242.1,457.1"/>
</g>
<g id="Layer_3">
	<path class="st3" d="M213.3,506C213.4,506.1,213.4,506.1,213.3,506C213.4,506.1,213.4,506.1,213.3,506z"/>
	<g id="surface1_4_">
		<path class="st0" d="M408.6,405c-1.6,1.6-3.2,3.2-4.8,4.8c-0.5,0.5-1.1,1-1.6,1.5c-0.4,0.4-0.8,0.8-1.2,1.1
			c-0.5,0.5-1,0.9-1.5,1.4c-0.3,0.3-0.6,0.6-0.9,0.8c-0.4,0.3-0.7,0.7-1.1,1c-5.2,4.6-10.4,8.6-15.3,12.1c-0.5,0.3-1,0.7-1.5,1
			c-0.5,0.3-1,0.7-1.5,1c-0.5,0.3-1,0.7-1.5,1c-4.3,2.9-8.4,5.3-12.2,7.4c-0.9,0.5-1.8,1-2.7,1.5c-0.5,0.2-0.9,0.5-1.4,0.7
			c-0.5,0.2-0.9,0.5-1.4,0.7c-0.4,0.2-0.9,0.4-1.3,0.6c-0.9,0.4-1.7,0.8-2.5,1.2c0,0,0,0-0.1,0c-1.6,0.8-3.1,1.4-4.5,2
			c-0.7,0.3-1.4,0.6-2,0.8c-0.3,0.1-0.5,0.2-0.8,0.3c-1,0.4-2,0.8-2.8,1.1c-0.2,0.1-0.4,0.2-0.6,0.2c-0.1,0-0.2,0.1-0.3,0.1
			c-0.2,0.1-0.4,0.1-0.6,0.2c-0.2,0.1-0.4,0.1-0.6,0.2c-0.2,0.1-0.4,0.1-0.5,0.2c-0.6,0.2-1.1,0.4-1.5,0.5c-0.1,0.1-0.3,0.1-0.4,0.1
			c0,0-0.1,0-0.1,0c-0.1,0-0.2,0-0.2,0.1c0,0-0.1,0-0.1,0c0,0,0,0-0.1,0h0c0,0-0.1,0-0.2,0c0,0-0.1,0-0.1,0c0,0-0.1,0-0.1,0
			c2.2-4.3,4.3-8.8,6.4-13.6c2.1-4.9,4.1-10.2,5.9-15.7c6.4-19.8,9.9-43.1,6.3-69.6c-0.2-1.4-0.4-2.7-0.6-4.1
			c-0.1-0.8-0.3-1.7-0.4-2.5c-4.6-25.2-15.8-53.2-37.2-83.7c-11.6-16.5-26.2-33.8-44.3-51.7c-54.6-54.6-98.8-80.7-133.8-91
			c-1.1-0.3-2.1-0.6-3.1-0.9c-24.3-6.6-43.9-5.5-59.4-1.2c-9.7,2.7-17.8,6.8-24.2,11c-1.1,0.8-2.2,1.5-3.3,2.3
			c-0.1,0.1-0.2,0.2-0.3,0.2C41,136.7,35.6,145,35.6,145s0.4-1.9,1.4-5.3C40.4,129,50.6,103.7,78.6,75c36-35,134-96,280,50
			c24,24,42.5,46.8,56.3,68.1c20.2,31.1,30.7,59.4,34.7,84.5C459.5,340.1,429.4,383.5,408.6,405z"/>
		<path class="st1" d="M358.6,126c-162-162-303-12-258-15c24-1,56,6,96,31C219.6,157,205.6,1,358.6,126z"/>
		<path class="st2" d="M408.6,405c-1.6,1.6-3.2,3.2-4.8,4.8c-0.5,0.5-1.1,1-1.6,1.5c-0.4,0.4-0.8,0.8-1.2,1.1
			c-0.5,0.5-1,0.9-1.5,1.4c-0.3,0.3-0.6,0.6-0.9,0.8c-0.4,0.3-0.7,0.7-1.1,1c-5.2,4.6-10.4,8.6-15.3,12.1c-0.5,0.3-1,0.7-1.5,1
			c-0.5,0.3-1,0.7-1.5,1c-0.5,0.3-1,0.7-1.5,1c-4.3,2.9-8.4,5.3-12.2,7.4c-0.9,0.5-1.8,1-2.7,1.5c-0.5,0.2-0.9,0.5-1.4,0.7
			c-0.5,0.2-0.9,0.5-1.4,0.7c-0.4,0.2-0.9,0.4-1.3,0.6c-0.9,0.4-1.7,0.8-2.5,1.2c0,0,0,0-0.1,0c-1.6,0.8-3.1,1.4-4.5,2
			c-0.7,0.3-1.4,0.6-2,0.8c-0.3,0.1-0.5,0.2-0.8,0.3c-1,0.4-2,0.8-2.8,1.1c-0.2,0.1-0.4,0.2-0.6,0.2c-0.1,0-0.2,0.1-0.3,0.1
			c-0.2,0.1-0.4,0.1-0.6,0.2c-0.2,0.1-0.4,0.1-0.6,0.2c-0.2,0.1-0.4,0.1-0.5,0.2c-0.6,0.2-1.1,0.4-1.5,0.5c-0.1,0.1-0.3,0.1-0.4,0.1
			c0,0-0.1,0-0.1,0c-0.2,0-0.3,0.1-0.4,0.1c0,0,0,0-0.1,0h0c0,0-0.1,0-0.2,0c0,0-0.1,0-0.1,0c0,0-0.1,0-0.1,0
			c4.6-4.6,9.4-10,14.3-16c2.2-2.7,4.4-5.5,6.6-8.5v0c7.8-10.5,15.6-22.6,22.7-35.9v0c14.5-27,26.7-58.9,31.5-93
			c4.5-31.8,2.6-65.3-9.7-98.2c-9.3-24.9-24.5-49.3-47.3-72.4c24,24,42.5,46.8,56.3,68.1c20.2,31.1,30.7,59.4,34.7,84.5
			C459.5,340.1,429.4,383.5,408.6,405z"/>
		<path class="st3" d="M357.6,432C357.6,432,357.6,432,357.6,432C357.7,431.9,357.7,431.9,357.6,432z"/>
		<path class="st3" d="M218.3,405.7l-0.1,0.3c-3.8-2.3-7.7-4.7-11.6-7.3c-22.3-14.6-46.7-34.3-73-60.8c-10-10-18.9-19.6-26.9-28.9
			c-2.4-2.8-4.8-5.6-7-8.3c-1.4-1.7-2.8-3.4-4.1-5.1c-1.3-1.7-2.6-3.3-3.9-5c0,0,0,0,0,0c-1.8-2.3-3.5-4.6-5.2-6.9
			c-0.5-0.7-1.1-1.4-1.6-2.2c-1-1.4-2-2.8-3-4.2c-0.5-0.7-1-1.4-1.4-2.1c-0.5-0.7-0.9-1.3-1.3-2c-0.8-1.2-1.7-2.5-2.5-3.7
			c-0.4-0.6-0.8-1.2-1.2-1.8c-0.5-0.8-1-1.6-1.5-2.3c-0.3-0.5-0.7-1.1-1-1.7c-0.3-0.5-0.7-1.1-1-1.6c-0.7-1-1.3-2.1-1.9-3.1
			c-18.7-31.2-26.1-57.2-27.9-77.6c-0.1-0.7-0.1-1.3-0.2-2c-0.1-0.8-0.1-1.6-0.1-2.4c0-0.4,0-0.8,0-1.2c0-0.5,0-1,0-1.5
			c0-0.5,0-1,0-1.5c0-0.9,0-1.8,0-2.7c0.2-23.4,7.8-37.6,10.8-42c0.8-1.2,1.3-1.7,1.2-1.4v0c0,0,0,0,0,0c0,0,0,0,0,0
			c0.8-0.4,1.6-0.8,2.5-1.2c7.9-3.9,15.8-7.8,24.2-11c4.8-1.8,9.8-3.4,15-4.5h0c13.4-2.9,28.6-3,47.3,2.6c0,0.4,0,1.7,0.2,3.8v0
			c0,0.1,0,0.1,0,0.2c0.1,2.7,0.4,6.5,0.8,11.3c-3.8-1.3-7.6-2.5-11.3-3.5c-53.8,71.1,8.1,180,80.6,261.7c-1.5,2.9-3,5.8-4.5,8.6
			c-0.6,1.1-1.1,2.2-1.6,3.3C210.7,401,214.5,403.4,218.3,405.7z"/>
		<path class="st3" d="M361.5,424.5L361.5,424.5c-1.3,2.5-2.6,5-3.8,7.5c-0.2,0.1-1.2,0.5-2.7,1.1c-1.8,0.7-4.4,1.5-7.9,2.3
			c-9.8,2.4-26.1,4.6-48,1.4c0.4-1.3,0.8-2.5,1.3-3.8c22.5,2.8,40.6-1.3,51.3-11.9c0.4-0.4,0.8-0.9,1.2-1.3
			c6.4-19.8,9.9-43.1,6.3-69.6c0.2-0.1,0.3-0.2,0.5-0.2c5-2.4,9-5.3,12-7.8C382.4,378,373,401.8,361.5,424.5z"/>
		<path class="st4" d="M212.8,386.4c-1.5,2.9-3,5.8-4.5,8.6c-0.6,1.1-1.1,2.2-1.6,3.3c-22.3-14.7-47-34.2-73.1-60.4
			c-10-10-18.9-19.6-26.9-28.9c-2.4-2.8-4.8-5.6-7-8.3c-1.4-1.7-2.8-3.4-4.1-5.1c-1.3-1.7-2.6-3.3-3.9-5c0,0,0,0,0,0
			c-1.8-2.3-3.5-4.6-5.2-6.9c-0.5-0.7-1.1-1.4-1.6-2.2c-1-1.4-2-2.8-3-4.2c-0.5-0.7-1-1.4-1.4-2.1c-0.5-0.7-0.9-1.3-1.3-2
			c-0.8-1.2-1.7-2.5-2.5-3.7c-0.4-0.6-0.8-1.2-1.2-1.8c-0.5-0.8-1-1.6-1.5-2.3c-0.3-0.5-0.7-1.1-1-1.7c-0.3-0.5-0.7-1.1-1-1.6
			c-20.9-33.7-28.5-61.4-30-82.8c-0.1-0.8-0.1-1.6-0.1-2.4c0-0.4,0-0.8,0-1.2c0-0.5,0-1,0-1.5c0-0.5,0-1,0-1.5c0-0.9,0-1.8,0-2.7
			c0.3-23.9,8.4-38.2,11.1-42.2c0.5-0.7,0.8-1.1,0.9-1.1c0,0,0,0,0,0c0.8-0.4,1.6-0.8,2.5-1.2c7.9-3.9,15.8-7.8,24.2-11
			c4.8-1.8,9.8-3.4,15-4.5h0c13.4-2.9,28.6-3,47.3,2.6c-1,1-1.9,2-2.8,2.9c-0.1,0-0.1,0.1-0.1,0.1c-2.7,2.8-5.1,5.7-7.4,8.7
			C78.4,195.9,140.4,304.8,212.8,386.4z"/>
		<path class="st5" d="M375.2,328.8c-6.9-19.4-17.2-39.8-30.4-60.5c-3.5-5.5-7.2-11-11.1-16.5c-0.3-0.4-0.5-0.8-0.8-1.1
			C320,232.9,305,215.1,288,197.9c-25.4-25.7-52.5-46.8-79.1-62.7c-41.6-24.9-82.2-37-114-34c-17.4,1.6-32.2,7.7-42.9,18.8
			c-5.9,5.8-10.5,12.8-13.6,20.7c-20,50.6,16.3,140.1,91.6,215.3c23.2,23.2,48.8,43.3,72.9,58.7c2.5-1.2,4.6-13.8,6.9-18.6
			c3.9,2.6,6,8.7,9.8,11l0.1-0.3c-3.8-2.3-7.7-4.7-11.6-7.3c0.5-1.1,1.1-2.2,1.6-3.3c-22.2-14.5-44.1-32.4-64.8-53.1
			c-40-40-70-85-84-127c-12-36-10-66,5-81c13.1-14,37.6-17.3,67.6-9.2c3.7,1,7.5,2.2,11.3,3.5c0.7,0.2,1.4,0.5,2,0.7
			c42,14,87,44,127,84c16.2,16.2,30.8,33.3,43.4,50.7c0.1,0.1,0.2,0.3,0.3,0.4c3.8,5.3,7.5,10.7,10.9,16.1
			c12.9,20,22.8,40.3,29.4,59.8c0.4,1.2,0.8,2.5,1.2,3.7c0.2,0.8,0.5,1.5,0.7,2.2c0.4,1.3,0.8,2.6,1.1,3.9
			c8.3,30.6,5.8,55.9-6.7,69.8c-0.4,0.5-0.8,0.9-1.2,1.3c-10.6,10.6-30.5,14.7-53,11.9c-0.5,1.3-1.4,3.3-1.8,4.6
			c-1.7,5.1-2.8,9.4-3.8,14.2c16.9,2.4,34.4,1.5,47.6-2.7c0,0,0.1,0,0.1,0s0.1,0,0.1,0c0,0,0.1,0,0.2,0h0c0,0,0,0,0.1,0
			c0,0,0.1,0,0.1,0c0,0,0,0,0,0s0,0,0,0c9.4-3.2,17.6-8,24.4-14.8c11.5-11.5,17.5-27,18.6-45.4v0
			C386.7,371.5,383.1,350.8,375.2,328.8z"/>
		<path class="st3" d="M247.2,322.4c-15.5,21.5-26.4,45.9-34.4,64c-72.4-81.6-134.4-190.6-80.6-261.7c3.7,1,7.5,2.2,11.3,3.5
			c2.9,32.7,14.2,109.8,57,155.7C210.2,294.3,222.8,307.1,247.2,322.4z"/>
		<path class="st3" d="M352.8,419.7c-0.4,0.5-0.8,0.9-1.2,1.3c-10.6,10.6-28.8,14.7-51.3,11.9c8.9-25.2,25.5-53,48.4-79.2
			c3.8-0.9,7.3-2.2,10.4-3.6C362.8,376.5,359.2,399.8,352.8,419.7z"/>
	</g>
	<g id="surface1_5_">
	</g>
</g>
<g id="Layer_4" class="st6">
	<path class="st7" d="M446.7,499.5c-0.2-0.1-0.5-0.2-0.7-0.2c-0.1-1.7,0.8-3.2,1.4-4.7c1.2-3,2.8-5.8,5.7-7.6c2.2-1.4,5.5-1,6.9,1
		c1,1.5,0.9,3.1,0.6,4.7c-0.5,2.1-1.5,3.9-3,5.5c-0.7,0.8-1.6,1.2-2.5,1.5c-2.3,0.7-3.7-0.6-3.5-3.1c0.2-0.5,0.4-1,0.6-1.5
		c0.3-0.7,0.7-0.7,1.2-0.2c1.5,1.5,1.9,1.5,3.9,0.4c0.8-0.4,1.7-1,1.7-2c0-1.2-0.7-2.1-1.8-2.7c-0.5-0.3-1.1-0.4-1.7-0.5
		c-2.8-0.3-6,2-6.7,4.5C447.7,496.1,447.4,497.9,446.7,499.5z"/>
	<path class="st7" d="M548.2,401.3c-0.5-0.8-0.7-1.6-1.7-2.1c-2.8-1.4-4.6,0.3-5.6,2.3c-0.6,1.2-0.9,2.5-1.4,3.7
		c-0.2-0.1-0.5-0.2-0.7-0.2c0.3-2.1,0.7-4.3,1.4-6.3c0.4-1.1,1-2,1.7-2.9c1.5-2,4.2-1.8,5.7,0.2c0.8,1.1,1,2.4,1.5,3.6
		c0,0.3-0.2,0.6-0.1,0.9C549.2,401.1,548.8,401.3,548.2,401.3z"/>
	<path class="st7" d="M507.8,445c0.8-2.1,1-2.2,3.2-1.8c1.6,0.7,2.6,2.1,3.9,3.2c0.1,0.2,0.2,0.3,0.3,0.5c0,0.3,0.1,0.5,0.1,0.8
		c-0.2,1.1-0.4,1.2-1.4,0.9c-0.4-0.1-0.8-0.3-1.2-0.5c-1.2-1.1-2.6-1.9-4.3-2.2C508.2,445.5,508,445.3,507.8,445z"/>
	<path class="st7" d="M517.3,437.5c0.3-0.9,0.8-1.7,1.4-2.4c1.3,0.1,1.4,1,1.3,2.1c-0.2,0.8-0.5,1.6-0.4,2.4c0.1,1.4-1,2.5-0.7,3.9
		c-0.3,0.7-0.5,1.5-0.8,2.2c-0.7-0.1-0.6-1-1.1-1.3c0.2-0.6,0.1-1.2,0.1-1.7C517,441,517,439.2,517.3,437.5z"/>
	<path class="st7" d="M559.6,372.4c-0.3-0.1-0.5-0.2-0.8-0.3c-0.2-2.6,0.7-4.9,2.1-7c1.4-2.1,4-1.9,5.2,0.3c0.9,1.6,1,3.4,1.3,5.1
		c-0.1,1.6-0.3,3.1-0.6,4.7c-0.1,0.5-0.2,1.1-0.5,1.5c-1.3,2.1-2.4,2.5-3.8,0.5c0-1.4-0.8-2.9,0-4.4c0.2,0.3,0.3,0.4,0.5,0.6
		c0.9,1.2,1.5,1.2,2.5,0.2c0.2-0.2,0.4-0.5,0.6-0.8c1-1.5,0.4-3.8-1.2-4.8c-1.5-0.9-3.4-0.1-4.2,1.6
		C560.2,370.5,559.9,371.5,559.6,372.4z"/>
	<path class="st7" d="M559.5,395.5c0.2,0.1,0.3,0.1,0.5,0.2c0,0.2,0.1,0.4,0.1,0.5c0,0.3-0.2,0.5-0.4,0.5c-0.3,0-0.3-0.4-0.3-0.6
		C559.4,395.9,559.4,395.7,559.5,395.5z"/>
	<path class="st7" d="M542.8,408.4c0.1-1.5-0.4-3,0.3-4.4c0.2,0,0.3,0,0.4,0.1c1.2,1.7,1.9,1.8,3.4,0.5c0.8-0.7,1.3-1.5,1.4-2.5
		c1.1,1,0.4,2.2,0.1,3.2c-0.3,0.9-0.9,1.7-1.3,2.6c-0.2,0.3-0.4,0.7-0.7,0.9C545,410.1,544,410,542.8,408.4z"/>
	<path class="st7" d="M516.4,444.4c-0.1,0.3-0.2,0.5-0.6,0.6c-0.8-0.2-1.2-0.9-1.8-1.4c-0.7-0.8-0.9-1.9-1.8-2.5
		c-0.3-1.2-1.2-2.1-1.2-3.4c0-1.4,0.2-2.1,1.1-2.4c1.1-0.3,1.7,0.3,2.2,1.1c0.1,0.2,0.1,0.4,0.2,0.6c0.5,2.1,1.3,4.2,1.3,6.4
		C516,443.7,516.3,444,516.4,444.4z"/>
	<g class="st8">
		<path class="st9" d="M302.7,575.7c-0.6-0.1-1.2-0.3-1.8-0.4c0,0-0.1-0.1-0.1-0.1c-0.1-2.8-1.9-4.8-3.4-6.9c-0.3-0.4-0.7-0.3-1,0
			c-1,1-2.2,1.1-3.5,0.9c-4.5-0.4-8.3-2.4-11.7-5.4c-0.8-0.7-1.1-1.6-0.6-2.6c2.2-1.1,4.3-0.6,6.5,0.2c0.7,0.2,1.3,0.5,1.6,1.6
			c-1.8-0.2-3.2-0.9-4.8-0.9c-0.6,0-1.4-0.5-1.8,0.2c-0.4,0.9,0.5,1.2,1,1.7c1.4,1.3,3.1,1.9,4.7,2.8c1.6,0.9,3.3,1.2,5.1,1.3
			c0.9,0,1.8-0.1,2.3-0.9c0.5-0.8,0-1.6-0.4-2.4c-0.1-0.2-0.3-0.4-0.4-0.6c-1.1-1.3-2.2-2.6-3.2-4c-0.1-0.5-0.4-0.9-0.7-1.4
			c-0.8-1.1-1.7-2.1-2.2-3.2c-1.7-3.5-2.5-7.1-2.4-11c0-1.7,0.6-3.3,0.9-5c0.2-0.7,0.4-1.3,0.7-2c0.1-0.4,0.2-0.8,0.7-0.7
			c0.4,0.1,0.5,0.6,0.4,1c-0.1,0.4-0.2,0.9-0.3,1.3c-0.5,1.2-0.3,2.5-0.4,3.7c-0.1,1.1-0.5,2.2-0.2,3.3c0.4,1.5,0.6,3.1,1,4.6
			c1,3.6,2.8,6.7,5.1,9.6c0.6,0.7,1.2,1,2,0.7c0.5-0.1,1.1-0.1,1.5-0.4c0.1,0,0.3,0.1,0.4,0.1c2.4-0.1,4.6,0.4,6.6,1.8
			c0.6,0.4,1.3,0.2,1.6-0.5c0.7-1.3,1.9-1.6,3.3-1.9c2.5-0.5,4.8,0.2,7.1,1c1.8,0.7,3.2,0.8,4.2-1.2c0.1-0.3,0.4-0.5,0.6-0.7
			c2.8-1.5,5.7-1.8,8.8-0.8c1,0.3,1.6,0,2.2-0.7c1.2-1.5,2.9-2.2,4.6-2.9c3.5-1.3,7-1.8,10.6-1.2c0.8,0.1,1.3,0,2-0.5
			c4.1-3.4,9-5.2,13.9-6.9c3.2-1.1,6.4-1.9,9.5-3.3c1.1-0.5,2.3-0.5,3.3-1.3c4.3-1.6,8.5-3.5,12.4-5.8c2-1.2,3.9-2.6,6-3.7
			c1.6-0.8,3.2-1,4.8,0.1c1.6,1,1.6,0.9,2.6-0.7c0.1-0.2,0.2-0.4,0.2-0.5c0.5-0.8,1-1.5,1.5-2.3c1.2-1.7,2.6-3.2,4.6-4
			c2.1-0.8,4.3-1.1,6.6-0.5c2,0.7,2,0.7,2.7-0.8c0.5-1.2,1.1-2.4,1.7-3.5c2.2-4.1,5.4-6.6,10.2-6.6c0.9,0,1.2-0.4,1.7-1.1
			c1.2-2,2.2-4.2,4.2-5.6c1.6-1.1,2.4-2.5,2.7-4.4c0.1-0.5,0.2-0.9,0.4-1.3c0.4,0.1,0.7,0.2,1.1,0.3c0,0.3-0.1,0.5-0.1,0.8
			c-0.4,1.1-0.1,1.8,1.1,2c0.8,0.2,1.4,0.6,2,1.1c1.5,1.3,1.7,1.3,2.3-0.7c0-0.1,0-0.3,0.1-0.4c0.6-1.8,1.6-3.3,2.5-4.9
			c2.1-3.6,5-6,9.2-6.7c1-0.2,1.7-0.8,2.1-1.8c1.1-2.6,2.7-4.9,4.9-6.8c2.3-1.9,3.1-2,5.7-0.7c1.1,0.5,1.2,0.5,1.5-0.6
			c0.5-1.6,1.1-3.2,1.8-4.8c0.9-2,2.1-3.8,3.7-5.2c1.9-1.6,4.2-2.8,6.9-2c1,0.3,1.5,0,1.7-1c0.1-0.4,0.2-0.9,0.4-1.3
			c0.7-2.7,1.9-5.2,3.1-7.8c0.3-0.3,0.6-0.5,0.9-0.8c1.6-1.8,3.4-3.3,5.9-3.7c0.8-0.1,1.2-0.7,1.3-1.5c0.2-0.5,0.4-1,0.6-1.5
			c0.6-2.6,2.2-4.8,3.9-6.8c1.5-1.8,3.5-2,5.2-0.6c0.3,0.2,0.4,0.7,1,0.5c0.4-0.5,0.4-1.2,0.6-1.8c0.9-3,1.6-6.1,3-9
			c1.3-2.5,3.1-4.6,5.9-5.5c1.2-0.4,1.9-1,2.1-2.2c0.5-2.4,1.4-4.7,2.7-6.7c1.3-2.1,2.7-4,4.1-6c0.4-0.6,0.6-1.2,0.8-1.9
			c0.3-1.5,0.3-3,0.6-4.5c0.2,0,0.3,0.1,0.4,0.1c-0.2,0.7,0,1.4,0,2c-0.2,0.5-0.2,1.1,0.4,1.2c0.6,0.2,0.9-0.3,1-0.8
			c0.4-0.4,0.8-0.9,1.2-1.3c2.8-3.1,5.6-6.2,7.8-9.7c1.8-2.8,3.5-5.7,3.5-9.3c0.3-0.6,0.1-1.5,0.9-1.9c-0.1,1.6,0.1,3.2-0.2,4.7
			c-1,5.4-3.3,10.2-6.7,14.6c-2.5,3.2-4.3,6.7-5.3,10.7c-0.3,1-0.6,2-0.9,3c-0.2,1.2-0.4,2.4-0.6,3.6c0.1,0.2,0.1,0.3,0.2,0.5
			c0,1-0.1,2,0.3,3c-0.1,0.4-0.2,0.8,0,1.2c1.3,3,4.3,4.6,7.4,3.7c5.1-1.4,8.4-5,10.9-9.5c0.5-1,1.1-1.9,1.6-2.9
			c0.4-0.1,0.5-0.4,0.3-0.8c0.8-1.3,1.2-2.8,1.6-4.2c0.4-1.7,0.4-3.4,0.1-5.1c-0.3-1.8-0.7-2.2-2.6-2.5c-0.9-0.2-1.4-0.7-1.6-1.5
			c-0.1-0.8-0.2-1.6,0.2-2.3c0.5-0.9,0.8-2.2,2.2-2.3c1-0.1,2.2,0.9,2.6,2.4c0.3,1,0.5,2.1,0.6,3.1c0.2,3.8-0.1,7.6-1.1,11.3
			c-0.7,2.6-1.4,5.2-2.7,7.6c-1.2,1.7-2.3,3.5-3.5,5.2c-2.2,2.9-4.7,5.5-8.3,6.7c-3.7,1.3-6.4,0.2-7.9-2.4c-1-1.6-1.6-3.4-1.7-5.4
			c0-1,0.1-2-0.2-2.9c0.2-1.3,0.4-2.6,0.6-3.9c0.2-1.6,0.5-3.2,0.7-4.8c0.7-0.7,0.8-1.6,1-2.5c0.1-0.2,0.1-0.5-0.2-0.7
			c-0.4-0.2-0.7,0-0.8,0.3c-0.6,1-1.6,1.7-2.1,2.8c-1,1.1-2.1,2.2-3,3.4c-1.4,1.8-2.6,3.8-3.1,6.1c-0.2,0.7-0.2,1.3,0.5,1.7
			c1.5,1,2.1,2.6,2.3,4.3c0.1,0.9,0.3,1.8,0.4,2.7c-0.1,2.7-1.1,5.2-1.7,7.7c-1.2,2.6-2.6,5-4.9,6.8c-2.1-0.5-2.4-0.9-1.9-3
			c0-0.1,0.1-0.3,0.1-0.4c0.8-1.3,1.9-2.4,3.3-2.9c2.3-0.9,3.8-4.4,3.1-7c-0.8-2.8-3.1-4.1-5.7-3.1c-2.9,1-4.8,3.3-5.8,6.2
			c-0.2,0.8-0.4,1.5-0.7,2.3c-0.7,1.2-0.4,2.6-0.7,3.9c-0.2,0.4-0.2,0.9-0.1,1.4c0.2,2.4,0.5,4.8,0.8,7.2c1.4,9.8,1.9,19.6,0.8,29.5
			c-0.2,1.4-0.7,2.8-0.5,4.3c-0.7,2.6-1.5,5.2-2.3,7.7c-0.2,0.6-0.2,1.3-0.9,1.7c-0.2-0.1-0.4-0.2-0.7-0.3c0.3-1.1,0.6-2.1,0.9-3.2
			c0.9-2.7,1.5-5.5,1.6-8.4c0.5-2.1,0.6-4.3,0.6-6.4c0.2-5.1-0.3-10.2-0.6-15.3c-0.1-1.6-0.5-3.1-0.7-4.7c0-0.3-0.2-0.5-0.5-0.5
			c-0.2,0-0.4,0.1-0.5,0.3c-0.6,1.6-1.9,2.8-2.3,4.5c-0.4,0.4-0.7,0.8-0.8,1.3c-0.3,0-0.6,0-0.9,0.3c-3.5,4.2-7.5,7.9-11.4,11.6
			c-1.3,1.2-2.9,2.1-3.7,3.7c-0.8,0.2-1.3,0.8-1.7,1.6c-0.3,0.1-0.5,0.3-0.6,0.6c-0.4,0.1-0.7,0.3-1,0.6c-3.4,3.1-6.8,6.2-9.9,9.6
			c-1.1,1.2-1.5,2.4-1.4,3.9c0.3,4.4,0.5,8.8,0.2,13.2c-0.3,5.1-0.9,10.2-2.6,15.1c-0.6,1.7-1.1,3.4-2.5,4.7
			c-0.4-0.3-0.3-0.6-0.1-0.8c1.2-2.2,1.5-4.6,2.1-6.9c0.9-3.7,1.1-7.5,1.2-11.3c0.2-4.7-0.1-9.3-0.5-14c-0.3-3.3-0.7-6.5-2.1-9.6
			c-1-2.1-2.5-3.4-5.1-1.7c-1.1,0.8-2.1,1.7-2.9,2.9c-0.8,1.3-0.9,1.4,0.4,2.3c1.7,1.2,2.4,2.9,2.5,4.9c0.1,1.4-0.4,2.7-0.8,4
			c-1.3,4.5-4,7.9-8.5,9.6c-1.7-0.9-1.8-1-1.1-3.2c1.1-0.8,2.2-1.7,3.6-1.9c2.5-0.5,3.8-2.2,4.4-4.5c0.5-2.1-1.1-4.5-3.3-4.9
			c-3.6-0.6-7.8,1.3-9.8,4.5c-0.7,1.2-1.6,2.2-1.8,3.6c-1,2.3-0.7,4.7-0.7,7.1c0,1.7,0.2,3.4-0.3,5c-0.3,0.7-0.4,1.4-0.8,1.9
			c-0.5,0.7-1,0.5-1-0.4c0.5-2.8-0.2-5.5-1.4-8c-1.3-2.7-4.2-3.1-6.3-0.9c-1.1,0.4-1.7,1.3-2.3,2.3c-0.8,0.6-1.2,1.4-0.3,2.1
			c1,0.7,1.5,1.8,2.3,2.6c0.1,0.2,0.1,0.3,0.2,0.5c-0.1,1.1,0.4,2.2,0,3.3c-0.5,1.3-0.7,2.8-1.4,4.1c-1.6,2.9-4.2,4.6-7.2,5.7
			c-2.1-0.6-2.1-0.6-1.7-2.5c1.2-1.5,2.9-1.9,4.7-2.2c1.8-0.3,3.3-2,3.5-3.6c0.1-1.6-1.2-3.3-3-4c-1.8-0.7-3.7-0.8-5.4-0.3
			c-2.5,0.7-4.5,2.1-5.3,4.8c-0.5,1.7-0.4,3.5-0.2,5.3c0.3,3.2-0.5,6-2.7,8.4c-1.8,1.9-3.9,3-6.5,3.4c-1.4-0.6-1.6-0.9-1-2
			c0.2-0.5,0.5-0.9,0.8-1.3c1.3-0.3,2.5-0.7,3.9-0.8c1.6-0.1,2.7-1.2,3.2-2.6c0.6-1.4-0.1-2.6-1.1-3.6c-0.7-0.8-1.6-1.4-2.7-1.6
			c-2.2-0.3-4.4-0.3-6.5,0.8c-1.4,0.7-2.6,1.6-3.3,3c-0.9,2.1-1.1,4.3-0.7,6.6c0.3,1.6,0.6,3.2,0.8,4.8c0.4,2.7,0.4,5.5,0.5,8.3
			c0.1,5.3-0.4,10.5-2.1,15.5c-0.1,0.4-0.3,0.9-0.5,1.3c-0.3,0.4-0.7,0.9-1.3,0.6c-0.4-0.2-0.1-0.7,0-1.1c0.4-1.9,1.1-3.6,1.3-5.6
			c0.3-3,0.3-6,0.3-9.1c-0.1-4.6-0.5-9.2-1.8-13.6c-0.2-0.5-0.3-1-0.8-1.2c-0.5-2.2-1.8-3.2-4-3.2c-1.2,0-2.1,0.6-3.1,1.1
			c-2.1,1.2-2.2,1.6-1.3,4.1c0.1,0.2,0.3,0.4,0.5,0.6c-0.1,0.4,0.1,0.8,0.2,1.1c0.5,2.2,1.7,4.1,2.1,6.3c0.9,4.2,0.8,8.4,0.2,12.7
			c-0.5,3.6-1.6,6.9-3.4,10c-0.5,0.9-1,1.9-2.7,2c1.6-2,2.5-4,3.1-6.1c1.6-5.2,1.7-10.5,0.4-15.7c0.1-0.4,0-0.8-0.1-1.1
			c-0.4-0.8-0.2-2.2-1.1-2.3c-1-0.1-1.3,1.2-1.7,2.1c-3.1,3.3-6.7,4.8-11.2,3.4c-1.6-0.5-1.8-0.3-2.8,1.1c-2.5,3.8-6,5.4-10.5,4.9
			c-3.2-0.4-6.4-2.2-6.3-5.8c0.3-0.9,0.7-1.9,0.7-3c-1.4,0.3-2.5,0.5-3.4,1.4c-0.8,0.2-1.4,0.5-2,1.1c-2.3,0.8-2.5,1.4-0.8,2.8
			c0.2,0.2,0.4,0.3,0.6,0.4c0.7,2.3-0.8,4.1-1.8,6c1.4,0.4,2.7,0.7,3.9,1.1c2.5,0.8,4,2.6,4.5,5.2c0.2,1,0,2.1,0.1,3.1
			c-0.9,3.9-2.9,7-6.3,9.2c-0.1,0-0.1,0.1-0.1,0.2c-0.4,0.2-0.7,0.2-1.1,0c-0.4-0.8,0.5-0.7,0.8-1c2.8-2.4,5-5.1,4.5-9
			c0.3-0.7,0-1.2-0.2-1.9c-1.4-3.4-5.1-5.2-10.1-3.9c-0.5-0.2-0.8,0.2-1.2,0.4c-0.5,0.3-1,1.2-1.6,0.6c-0.6-0.6,0.2-1.2,0.5-1.7
			c0.1-0.1,0.1-0.2,0.2-0.3c1.8-0.8,3.5-1.8,4.9-3.3c1.4-1.5,1.2-2.8-0.7-3.7c-1.2-0.6-2.4-0.9-3.7-1.2c-3.7-0.8-7.2,0.2-10.5,1.7
			c-1.6,0.7-1.7,1.4-0.3,2.4c1.5,1.1,2.3,2.4,2.4,4.2c-0.7,3.5-5.8,4.8-8.9,3.1c-0.8-0.4-0.7-1,0-1.5c0.3-0.2,0.7-0.3,1.1-0.2
			c1.5,0.1,3,0.6,4.5,0.2c0.9-0.2,1.3-0.8,1.1-1.7c-0.1-0.5-0.4-0.9-0.9-1.3c-3-2.6-6.4-3.5-10.2-2.9c-0.1,0-0.3,0-0.4,0.1
			c-0.8,0.2-1.4,0.7-1.6,1.6c-0.4,1.6-0.2,3,0.8,4.3c-0.2,2.3-2,3.5-4.4,3.6c-1.1,0-2.1,0-3.1-0.4c-0.6-0.3-1.7-0.1-1.6-1.1
			c0.1-1,1.2-0.5,1.8-0.9c0.8,0.2,1.5,0.4,2.3,0.6c0.5,0.1,1,0.2,1.6,0c1.2-0.3,1.6-1.3,0.8-2.2c-2.9-3.1-6.6-4.2-10.7-3.8
			c-1.4,0.1-1.9,1-1.8,2.5c0.1,1.2,0.6,2.3,1.1,3.3c0,0.2-0.1,0.4,0,0.6c0.1,0.7,0,1.4-0.9,1.4c-0.8,0-1-0.6-1-1.4
			c-0.8-2.2-2.3-3.9-4.3-5.1c-1.4-0.9-3-1.3-4.7-1c-0.9,0.1-1.1,0.6-0.6,1.4c1,1.5,1.9,3,3.2,4.2c0.1,0.7,0.6,1.1,0.9,1.7
			C301.7,571.5,302.6,573.4,302.7,575.7z M362.1,555.7c0.8,0.2,1.5,0.5,2.3,0.7c2.4,0.6,4.7,0.4,6.8-1c1.7-1.1,2.2-2,1.8-4.1
			c-0.3-1.5-0.7-2.9-0.2-4.5c0.4-1.2,0.1-1.4-1.1-1.1c-2.9,0.9-5.9,1.9-8.8,2.9c-0.6,0-1.2,0.3-1.6,0.7c-1,1-2.2,2.1-1.8,3.7
			C359.8,554.4,360.6,555.4,362.1,555.7z M474.4,491.6c0.1,0,0.3,0,0.4-0.1c1.2-1.3,2.9-2,3.7-3.7c0.2-0.4,0.6-0.6,1-0.9
			c1.9-1.4,3.1-3.3,4.3-5.2c0.2-0.4,0.3-0.9,0.4-1.3c0.3-2.6-1.5-5.2-3.8-5c-2.3,0.2-4.5,0.9-5.9,3c-1.3,1.3-2.2,2.8-2.5,4.6
			c-0.5,2.3-0.7,4.6-0.3,6.9c-0.3,0.7,0,1.4,0.3,2.1c0.2,0.5,0.1,1.2,0.7,1.3c0.7,0.2,1-0.5,1.4-0.9
			C474.2,492.2,474.3,491.8,474.4,491.6z M490.3,476.3c1.8-1.7,3.8-3.3,5.5-5.1c1.2-1.2,1.9-2.7,2.2-4.3c0.5-2.7-1.1-6.4-5.5-5.2
			c-3,0.8-5.7,4.3-6.1,7.3c-0.2,1.8,0,3.5-0.3,5.3c0,1.5,0.5,2.9,0,4.4c-0.1,0.2,0,0.6,0.2,0.7c0.3,0.2,0.6,0,0.9-0.2
			C488.1,478.2,489.4,477.5,490.3,476.3z M378.1,550.4c2,0.5,4,0.6,6.1,0.1c1.9-0.5,4.2-2.3,4.2-5.1c0-1.6-0.3-3-0.7-4.4
			c-0.5-1.7-0.6-1.8-2.1-1.1c-2.9,1.4-6,2.5-8.8,4.1c-2.6,1.5-2.7,3.6-0.5,5.5C376.7,550,377.4,550.3,378.1,550.4z M506.1,458.3
			c0.5-1.8-0.3-5.3-1.4-6.7c-1.3-1.7-2.5-1.9-4.2-0.7c-1.5,1.1-2.3,2.8-3.1,4.5c-0.3,0.7,0,1.1,0.5,1.5c0.9,0.8,1.3,1.8,1.5,2.9
			c0.4,1.9,0.4,3.8,0.1,5.7c-0.1,0.4-0.2,0.8,0.3,1c0.4,0.2,0.7-0.2,1-0.5c0.8-0.9,1.5-1.8,2.2-2.8
			C504.3,461.7,505.5,460,506.1,458.3z"/>
		<path class="st9" d="M544.6,388.9c0.6-2,0.7-4.2,1.4-6.2c1-0.9,0.7-2.2,0.9-3.3c0.1-0.7-0.6-2,1.1-1.7c0.1,0,0.3-0.5,0.5-0.8
			c1.6-2.6,3.3-5.2,4.8-7.9c2.1-3.8,4.2-7.6,5.4-11.8c0.1-0.4,0.2-1,0.8-1c1.1-0.1,1.4-0.9,1.6-1.7c0.7-2.4,1.9-4.7,2.2-7.3
			c0.2-2.6,0.4-5.2-1.2-7.6c-1.2-3-3.4-3.6-5.5-1.4c-0.5,0.5-1.1,1.2-1.2,2c-0.4,0.8-0.3,1.6-0.3,2.4c0.4,1.1,0.6,2.3,2.1,2.6
			c0.9,0.2,1.2,1,1.3,1.7c0.1,0.9,0.3,1.8-0.2,2.7c-0.3,0.6-0.9,0.7-1.5,0.3c-0.4-0.3-0.6-0.8-1.2-1c-1-2.5-1.5-5.1-1.6-7.9
			c-0.1-2.4,0.4-4.7,1.7-6.8c1.5-2.5,4-2.1,5.4-0.5c0.8,1,1.3,2.1,1.8,3.3c0.8,2,1,4,1.4,6.1c0.1,3.1,0,6.2-0.9,9.2
			c-0.2,0.4-0.1,0.8,0,1.2c-0.1,0.5-0.3,1-0.4,1.5c-1.2,2-1.6,4.3-2.6,6.3c-0.4,0.9-1.3,1.9-0.9,3.1c0.3,1.1,0.4,2.2,1.1,3.1
			c0,0.1,0,0.2,0,0.3c-0.2,0.5-0.1,1,0.4,1.3c1.4,3.7,2.7,7.5,3.4,11.4c0.1,0.5,0.1,1.1,0.7,1.3c0,1.8,0.7,3.6,0.9,5.4
			c0.1,0.8,0.4,1.5,0.3,2.3c-0.4-0.1-0.8-0.2-1.2-0.3c-0.8-1.4-0.8-3-1.2-4.5c-0.5-3-1.7-6.3-2.6-7.2c-0.4,1.1-0.2,2.2-0.3,3.3
			c-0.2,2.7-1.2,5.2-1.8,7.9c-0.7,1.8-1.6,3.4-3.5,4.2c-0.9,0.4-1.7,0.3-2.6-0.3c-1.3-0.9-1.8-2.2-2.3-3.5c-0.4-3-0.5-6-0.5-9.3
			c-1.1,1-3.2,4.9-3.8,6.9c-0.4,1.3-0.9,2.4-1.1,3.7c-0.3-0.1-0.7-0.2-1-0.3c0-0.2,0.1-0.5,0.1-0.7
			C544.8,389.5,544.9,389.3,544.6,388.9z M555.9,369.5c-1.8,2.9-3.7,5.9-4.4,9.4c-0.5,2.6-0.5,5.1,1,7.4c0.9,1.4,2.5,1.8,3.9,0.9
			c1.3-0.9,2.4-2,2.8-3.5c0.5-1.9,0.9-3.8,0.9-5.8c0.1-2.7-0.4-5.3-1.1-7.9c-0.4-1.3-0.7-2.7-1.3-4.1
			C556.8,367.1,556.2,368.2,555.9,369.5z"/>
		<path class="st9" d="M575.4,347.6c-0.2,0.7-0.4,1.5-1.2,1.4c-0.8,0-1.1-0.7-1.2-1.4c-0.2-0.9-0.6-1.8,0-2.7c0.3-0.5,0.6-1.1,1.3-1
			c0.5,0.1,0.8,0.6,1,1.1C575.5,346,575.7,346.9,575.4,347.6z"/>
		<path class="st9" d="M576.7,295.5c0.7,0.2,1.3,0.4,2,0.5c0.5,0.4,0.5,1.1,0.7,1.6c1.7,3.2,3,6.5,4.5,9.8c0.5,1.1,0.6,2.4,1.6,3.3
			c-0.2,0.8,0.3,1.4,0.6,2c1.6,4.2,3.1,8.4,4.3,12.7c0.1,0.3,0.2,0.6,0.5,0.8c0.1,2.4,1,4.6,1.4,6.8c0.4,2,0.8,4.1,0.7,6.1
			c-0.1,0.3-0.3,0.6-0.7,0.6c-0.6-2.4-1.1-4.9-1.7-7.3c-1.1-4.2-2.2-8.4-3.8-12.4c-0.7-2.8-1.8-5.5-3.2-8.1c0.3,2.9,0.4,5.7,0.3,8.5
			c-0.2,0.5-0.4,1-0.5,1.5c-0.3,1.3-1,2.1-2.3,2.3c-0.4-0.1-0.8-0.2-1.1-0.3c-1.2-0.4-1.8-1.3-2.2-2.3c-0.3-0.7-0.6-1.5-1.1-2
			c-0.1-1.7-0.8-3.2-1.1-4.7c-0.7-2.7-0.8-5.4-1.1-8.2c-0.2-2,0.4-3.8,0.9-5.6c0.1-0.3,0.3-0.6,0.6-0.7c0.8,0.3,1.2,1.1,1.4,1.8
			c0.4,1.5,0.7,3,0.2,4.5c-1.8,3.2-1.5,6.7,1,9.3c0.3,1.2,1.1,1.4,2.1,1.2c1-0.2,1.3-1,1.2-2.6c0.5-1.7,0.3-3.4-0.2-5
			c0.1-1-0.2-1.9-0.5-2.9C580.2,302.9,578.1,299.3,576.7,295.5z"/>
		<path class="st9" d="M274.6,551.7c1.2,0.7,2.4,1.4,4,2.4c-0.6-1.1-1-1.8-1.4-2.6c-0.3-0.5-0.4-1,0.1-1.4c0.5-0.5,1-0.1,1.4,0.3
			c0.6,0.5,1.2,1.1,1.5,1.8c0.5,1,0.9,2,1.3,3.1c0.1,0.3,0.2,0.7-0.3,0.7c-1.3,0.1-0.1,0.9-0.3,1.2c-2.5-1-4.5-2.9-6.6-4.5
			C273.7,552.3,273.5,551.6,274.6,551.7z M279.6,554.9c0,0-0.1-0.1-0.2-0.1c0,0-0.1,0.1-0.1,0.1c0,0,0.1,0.1,0.2,0.1
			C279.5,555,279.6,554.9,279.6,554.9z"/>
		<path class="st9" d="M283,557c-0.2-0.8-0.6-1.5-0.5-2.3c0.1-0.9,0.6-1.3,1.4-1.3c1.1,0.1,1.6,0.8,1.3,1.7
			c-0.2,0.6-0.5,1.2-0.8,1.7C283.9,557.3,283.4,557.1,283,557z"/>
		<path class="st9" d="M329.9,544.1c0.2-0.7-0.4-1.7,0.6-2c1-0.3,1.9,0.1,2.5,1c0.1,0.2,0.3,0.3,0.4,0.4c-0.1,1.1,0.5,2.1,0.8,3.2
			c0.2,0.8,0.4,1.6,0.1,2.5c0,0-0.1,0-0.1,0c-0.5-0.4-1.2-0.8-1.6-1.4C331.7,546.6,330.8,545.3,329.9,544.1z"/>
		<path class="st9" d="M336.7,544.7c0.4-0.3,0.7-0.5,1.2-0.5c1.2,0.1,1.7,0.7,1.3,1.9c-0.4,1.2-0.9,2.5-1.5,3.6
			c-0.6,1-1.3,0.2-1.9-0.3C336.2,547.9,335.6,546.1,336.7,544.7z"/>
		<path class="st9" d="M333.7,549.6c0.1,0.9-0.1,1.3-1.2,1c-1.4-0.5-2.3-1.7-3.7-2.1c-0.7-0.3-1.3-0.8-2-1.2
			c-0.5-0.3-0.9-0.7-0.6-1.3c0.3-0.5,0.8-0.3,1.2-0.2c0.3,0,0.5,0.1,0.8,0.2c1.1,0.5,2.1,1.3,3.1,2
			C332.1,548.5,332.6,549.4,333.7,549.6z"/>
		<path class="st9" d="M583.7,271.6c-0.8-0.2-1.1-0.9-1.3-1.6c0.2-0.1,0.4-0.2,0.5-0.3c0.3,0.4,0.6,0.7,0.9,1.1
			C583.8,271,583.7,271.3,583.7,271.6z"/>
		<path class="st9" d="M586.3,282.2c-1.4-0.8-2.7-3.1-2.3-4.8c0.3-1.2,0.3-2.5,0.6-3.7c1.1,2.2,1.6,4.6,2,7.1
			C586.6,281.3,586.4,281.8,586.3,282.2z"/>
		<path class="st9" d="M586.4,303.3c-0.2,0.5-0.1,1.2-0.7,1.5c-0.3-0.8-0.6-1.6-0.8-2.4c-0.7-3-2.6-5.4-3.7-8.3
			c-0.2-0.6-0.7-1.1-1.2-1.5c-0.6-0.5-1.2-0.3-1.2,0.5c-0.1,1.2-0.2,2.4,0.2,3.5c-0.7-0.2-1.3-0.4-2-0.5c-0.7-0.6-1.2-1.3-1.3-2.3
			c-0.1-0.7-0.4-1.2-0.8-1.7c-0.3-1.4-1.4-2.4-1.8-3.8c0.4-0.4,0.9-0.7,1.4-0.8c0.6,0.7,0.8,1.6,1.3,2.4c0.2,0.4,0.3,1,0.9,0.8
			c0.5-0.2,0.5-0.8,0.3-1.2c-0.2-0.6-0.2-1.1-0.1-1.7c0.4-1.7,0.5-1.8,2.3-1.2c-0.3-1.5-0.5-3-0.9-4.4c-0.5-1.5-0.6-3.1-0.7-4.7
			c0-1.7,0-1.7,1.7-2.5c0.3-0.1,0.5-0.4,0.6-0.8c0,0,0,0,0,0c0.6,0.2,0.7,0.6,0.9,1.2c1.3,3,2.6,6,4,8.9c0.1,0.3,0.1,0.6,0.2,0.9
			c-0.9-0.1-1.3-0.8-1.6-1.6c-0.5-1-1.1-1.8-1.9-2.5c-0.8-0.8-1.8-0.5-2.1,0.6c-0.2,0.6,0,1.2,0,1.8c0.5,3.2,1.7,6.2,2.9,9.2
			c0.6,1.6,0.9,3.3,2,4.7c0,1.4,0.9,2.5,1.1,3.8C585.6,301.9,585.8,302.7,586.4,303.3z"/>
		<path class="st9" d="M572.1,248.5c-1.3-0.5-2.3-1.5-3.5-2.1c-0.4-0.2-0.7-0.6-0.9-1c-0.7-1.1-0.5-1.3,1-1.4
			c-0.5-1-1.4-1.7-2.1-2.5c-0.7-0.7-1.2-1.6-1.9-2.3c-0.3-0.3-0.5-0.7-0.2-1.1c0.4-0.5,0.7-0.1,1,0.2c0.5,0.5,1,0.8,1.6,0
			c0.3-0.4,0.8-0.1,1,0.3c1.2,2.2,2.8,4.2,3.4,6.7C571.6,246.3,571.6,247.4,572.1,248.5L572.1,248.5z"/>
		<path class="st9" d="M579.2,271.1c-0.4-0.2-0.6-0.5-0.7-0.9c-0.6-1.5-1-3.1-1.2-4.8c-0.2-1.3-0.4-2.6,0.9-3.5
			c0.1-0.1,0.1-0.4,0.2-0.6l0,0c1.7,2.9,3.9,5.5,4.9,8.8c-0.2,0.1-0.4,0.2-0.5,0.3c-0.5-0.6-1-1.2-1.5-1.8c-0.4-0.4-0.7-1.1-1.4-0.8
			c-0.7,0.3-0.6,0.9-0.5,1.5C579.2,269.9,579.2,270.5,579.2,271.1C579.2,271.1,579.2,271.1,579.2,271.1z"/>
		<path class="st9" d="M579.5,253.9c-0.1,0.4-0.2,0.8-0.2,1.2c-0.7-0.1-0.8-1.1-1.5-1.1c-0.7,0.7-0.5,1.5-0.4,2.4
			c0.2,1.3,0.8,2.6,0.4,4l0,0c-1.1-2-1.5-4.3-2.1-6.5c-0.3-1.1-0.5-2.3-0.7-3.5c-0.1-0.4-0.1-0.8-0.1-1.2c0.1-0.4,0.4-0.7,0.8-0.8
			c0.4-0.1,0.5,0.3,0.7,0.6C577.3,250.7,578.1,252.6,579.5,253.9z"/>
		<path class="st9" d="M579.9,274.2c-0.6-0.5-0.5-1.1-0.3-1.7c0,0,0,0,0,0C580.2,272.9,580.2,273.5,579.9,274.2L579.9,274.2z"/>
		<path class="st9" d="M579.6,272.5c-0.7-0.3-0.6-0.8-0.4-1.4c0,0,0,0,0,0C579.6,271.5,579.8,271.9,579.6,272.5L579.6,272.5z"/>
		<path class="st9" d="M578.3,261.4c-0.5-0.2-0.7-0.5-0.5-1c0,0,0,0,0,0C578.2,260.5,578.4,260.9,578.3,261.4L578.3,261.4z"/>
		<path class="st9" d="M572.1,248.5c0,0,0.1,0.1,0.1,0.1C572.1,248.7,572.1,248.7,572.1,248.5C572.1,248.5,572.1,248.5,572.1,248.5z
			"/>
		<path class="st9" d="M585.7,296c-0.4-1.1-1.1-2.1-1.2-3.3c-0.1-1.1-0.4-2,0.4-3c0.5-0.5,0.2-1.3,0.1-1.9c-0.1-0.8-0.4-1.5,0-2.3
			c1.3,2.6,1.8,5.5,2,8.3C587,294.6,587.2,295.9,585.7,296z"/>
	</g>
	<g class="st8">
		<path class="st9" d="M273.7,489.4c0,0.2-0.1,0.4-0.1,0.6c-0.4,1.3-0.8,1.5-1.9,0.8c-0.8-0.5-1.5-1.1-2.3-1.7
			c-0.5-1.1-1.7-1.7-2.4-2.9c1,0,1.4,0.6,2,1c0.5,0.3,0.8,0.2,1.3,0c0.5-0.3,0.5-0.7,0.4-1.2c-0.1-0.6-0.7-1.2-0.3-1.9
			c0.9,0.7,1.7,1.9,2.2,3.4C272.9,488.1,273.2,488.8,273.7,489.4z"/>
		<path class="st10" d="M280.8,487.4c1.1,0.9,1.5,2.4,2.8,3.2c-0.1,0.4-0.2,0.8-0.3,1.2c-0.6-0.1-0.8-0.6-1.1-1
			c-0.3-0.5-0.5-1-1.2-1.2c-0.2-0.5-0.3-0.9-0.5-1.4C280.7,487.9,280.8,487.6,280.8,487.4z"/>
		<path class="st10" d="M283.4,491.7c1.6,0.5,2.3,1.9,2.9,3.3c-0.1,0.1-0.1,0.3-0.2,0.4C284.9,494.4,284,493.2,283.4,491.7z"/>
		<path class="st10" d="M286.3,495.8c0.3,0.1,0.5,0.2,0.8,0.2C286.7,496.4,286.5,496.2,286.3,495.8z"/>
		<path class="st10" d="M286.1,489.6c-0.2,0-0.3-0.1-0.5-0.1c-0.3-0.3-0.3-0.6-0.2-0.9c0,0,0.1,0,0.1,0c0.2,0.2,0.4,0.4,0.7,0.6
			C286.1,489.3,286.1,489.5,286.1,489.6z"/>
		<path class="st10" d="M284.8,488.1c-0.8-0.4-1.3-1-1.1-2C284.5,486.5,284.9,487.1,284.8,488.1z"/>
		<path class="st10" d="M283.7,486.1c-0.9-0.2-1.5-0.6-1.2-1.6C283.1,484.8,283.5,485.4,283.7,486.1z"/>
		<g>
			<path class="st9" d="M340.5,300.6c-0.4,0.7-0.5,1.3-0.2,2c0.9,1.9,1.3,4,1.8,6c0.7,3,0.6,6.2,1.3,9.2c0,3.4,0.1,6.9,0.1,10.3
				c0,0.5-0.1,1-0.1,1.6c-0.2,3.3-0.2,6.7-0.8,10c-0.2-0.1-0.5-0.1-0.7-0.2c0.1-2.6,0.2-5.1,0.3-7.7c0.2-4-0.2-7.9-0.4-11.9
				c0-0.5-0.1-1-0.3-1.5c0-2.2,0-2.2-2.1-2.3c-1.4-0.1-2.7-0.5-4-1.1c-1.5-0.7-3-1.5-4.7-1.9c-2.7-0.6-4.9,1.6-4.1,4.3
				c0.2,0.7,0.5,1.4,0.7,2c1.1,3,2.1,5.9,3.2,8.9c-0.2,1.7,0.6,3.4,0.7,5.1c0.2,2.7,0.5,5.3,0.8,7.9c-0.2,0.8-0.1,1.6-0.1,2.4
				c-0.3-0.1-0.6-0.1-0.9-0.2c-0.1-2.6-0.7-5.2-1.2-7.7c-0.1-2-0.8-3.8-1.3-5.7c0-1.1-0.6-2.1-0.9-3.1c-0.1-0.3-0.3-0.4-0.6-0.4
				c-0.3,0-0.5,0.2-0.5,0.5c-0.3,0.9-0.6,1.8-0.7,2.8c-0.2,0.7-0.5,1.4-0.7,2c-0.6,1.9-1.7,3.4-3.4,4.4c-2.3,1.3-4.3,0.9-5.4-1.1
				c-0.1-0.2-0.3-0.4-0.5-0.6c-0.3-2.1-0.9-4.2-0.4-6.4c0-0.2,0-0.4-0.2-0.5c-0.3-0.2-0.5,0-0.7,0.1c-1.6,2-3.3,3.9-4,6.4
				c-0.5,1.8,0,3.3,1.3,4.6c0,0.2-0.1,0.5-0.1,0.7c-0.3,0.7-0.8,1.1-1.6,0.9c-0.4-0.4-0.7-0.7-1.1-1.1c-1-1-1.7-1.1-2.8-0.4
				c-1,0.6-2.1,2.9-1.7,3.9c0.8,2.1,1.4,4.2,2.5,6.1c0.3,1.3,0.8,2.6,1.2,3.9c1,3.2,2.4,6.4,2.5,9.9c-0.3-0.1-0.6-0.1-0.9-0.2
				c-0.2-0.8-1.1-1.4-0.9-2.4c-0.1-0.2-0.1-0.3-0.2-0.5c0-0.1,0-0.3,0-0.4c-0.1-0.2-0.1-0.3-0.2-0.5c-0.1-0.2-0.1-0.4-0.2-0.5
				c0-1.7-1-3-1.5-4.5c-0.1-0.4-0.6-0.5-1-0.5c-0.3-0.1-0.5-0.1-0.8-0.2c-0.1-0.2-0.2-0.3-0.2-0.5c0.2-1.9-0.3-3.6-1-5.3
				c-2.8-6.5-6.2-12.8-8.1-19.7c-0.6-2.2-1.1-4.4-1.4-6.7c-0.2-1.5-0.4-3-0.6-4.5c-0.2-2.1,0.3-4.2,0.3-6.3c0-0.3,0.2-0.6,0.3-0.9
				c0.1-0.2,0.3-0.3,0.4-0.3c0.3,0,0.4,0.2,0.5,0.5c0,0.5,0.1,1.1,0,1.6c-0.5,3.1,0.1,6.2,0.3,9.2c0.2,2.4,1.3,4.7,2,7
				c1.2,3.6,2.6,7.2,4.2,10.6c0.3,0.7,0.6,1.5,1.4,2.1c0.8-1.6,1.6-3.1,2.4-4.7c0.4-0.4,0.9-0.7,1.5-0.9c1.8,0,1.9,0,2.4-1.4
				c1.8-4.8,4.6-8.7,8.3-12.2c3.1-2.9,6.3-5.8,8.6-9.5c0.8-1.3,2-2.3,3.7-2.3c1.1,0,1.7-0.5,1.9-1.6c0.4-1.3,1.1-2.5,1.8-3.7
				c1.1-1.7,2.4-3,4.5-3.1c0.7,0,0.9-0.4,1.1-0.9 M324.7,328.1c1-3.4,0.9-6.1-0.4-8.7c-0.5-0.9-0.7-1-1.4-0.2
				c-0.7,0.7-1.3,1.4-2,2.1c-1.2,1.2-2.4,2.3-3.2,3.7c-1,1.8-1.5,3.6-0.8,5.6c0.6,1.7,2.3,2.4,4,1.7
				C323.1,331.5,324.2,329.6,324.7,328.1z M337.2,311.3c0.8,0.2,1.3,0.4,1.9,0.5c1,0.2,1.4-0.1,1.3-1.1c-0.2-1.9-0.9-3.7-2-5.3
				c-0.6-0.8-1.5-1-2.4-0.5c-1.4,0.8-2.3,2.1-3,3.5c-0.3,0.6-0.2,1.1,0.6,1.4C334.8,310.3,336,311.1,337.2,311.3z"/>
			<g>
				<path class="st9" d="M262.3,472.4c-0.9,2.6-0.3,5.1,0.7,7.5c0.6,1.4,0.8,2.7,0.5,4.1c-0.8-0.2-1-0.9-1.2-1.4
					c-1.4-4.4-2.4-8.8-2.5-13.5c-0.1-2.4-0.7-4.8-1.2-7.2c-0.2-1.1-0.9-2-1.7-2.9c-3.7-4.4-7.3-8.8-10.7-13.4
					c-2-2.7-3.7-5.6-5.3-8.5c-0.2-0.3-0.4-0.7-0.2-1c0.4-0.1,0.6,0,0.7,0.3c2.1,3.5,4.5,6.8,6.9,10.1c1.7,2.4,3.6,4.7,5.5,6.9
					c1,1.1,1.9,2.3,2.9,3.5c0.5,0.5,0.9,1.1,1.6,1.4c0,0.2,0.1,0.3,0.1,0.1c0,0-0.1-0.1-0.1-0.1c0.4-1-0.4-2-0.1-3.1
					c0.2-1.1,0.3-1.2,1.3-1.1c2.2,0.3,2.2,0.2,3.3,2.2c1.2,2.2,2.7,4.1,4.6,6.3c-0.1-2.1-0.2-3.7-0.3-5.4c0-0.7-0.2-1.5-0.1-2.2
					c0.6-3.3-1.5-5.1-3.6-7c-0.9-0.8-2.8,0.3-2.9,1.5c-0.1,0.7-0.1,1.4-0.3,2.1c-1.1-2.2-1.8-4.4-1.1-6.9c0.2-0.7,0.6-1.3,1.3-1.3
					c1.3,0,1.4-0.7,0.9-1.7c-0.1-0.2,0-0.5,0-0.8c0.4,0.1,0.7,0.4,0.8,0.8c1.1,2.8,2.9,5.2,4.3,7.8c0.2,0.3,0.3,0.8,0.9,0.6
					c0.1-2.1,0.9-4.1,1.1-6.3c0.2-3.1-1-5.4-3.2-7.2c-1.3-1.1-2.9-0.4-3.5,1.2c-0.4,1.1-0.2,2.2-0.4,3.3c-0.6-0.3-0.4-1.1-0.8-1.5
					c0.1-0.9-0.5-1.7-0.6-2.6c0.1-0.3,0.1-0.6-0.2-0.9c0.3-1.3,0.7-2.5,1-3.8c1.7-0.8,1.8-0.8,1-2.2c-0.4-1.5-0.5-2.9-0.1-4.4
					c0.3-1.3,0.2-2.6-0.2-3.8c0.2-0.1,0.4-0.2,0.6-0.3c0.7,0.9,1.9,0.9,2.9,1.3c0,0.3-0.1,0.7,0.4,0.7c0.3,0,0.2-0.4,0-0.6
					c-0.2-1.7-0.4-3.4-0.7-5.1c-0.3-1.9,0.1-3.8,0.7-5.6c0.6-1.6,1.2-2,3-2c0.4,0,0.8,0.1,1.2,0.2c1.5,1.1,2.8,2.4,3.3,4.3
					c0,0.2,0.3,0.3,0.4,0.4c0.1,0.2,0.2,0.3,0.3,0.5c-0.1,0.3-0.1,0.6,0.2,0.8c1.1,3,1.5,6.2,1.1,9.4c-0.2,1.4-0.7,2-2.2,2.2
					c-0.1-0.2-0.2-0.4-0.3-0.5c-0.8-0.8-0.9-1.8-1-2.9c-0.1-1,0.6-1.4,1.2-1.9c0.3-0.3,0.4-0.6,0.6-1c0.8-2-0.1-3.6-1.1-5.1
					c-1-1.5-2.1-1.9-3.5-1.4c-1.6,0.5-2.7,1.9-2.6,3.6c0.2,2,0.6,3.9,1.3,5.7c0.9,2.3,2,4.6,3.2,6.7c0.7,1.2,1.1,2.5,1.4,3.9
					c0.1,0.5,0.6,1.3-0.3,1.7c-0.1-0.3-0.2-0.5-0.5-0.3c-0.3,0.1-0.2,0.4,0,0.6c-0.2,1.8,0.2,3.5-0.2,5.3c-0.5,2.4-0.8,4.8-1.2,7.1
					c-0.7,5.1-1.2,10.2-0.3,15.4c0.1,0.6,0.1,1.2,0.8,1.5c0.5,0.3,0.6,0.8,0.9,1.2c1.7,2.4,3.2,4.9,5,7.3c0.9,1.3,2,2.6,2.8,4
					c0.8,1.4,2.2,2.5,2.6,4.3c-0.4-0.2-0.6-0.2-0.7-0.3c-0.8-1.3-2.1-2.3-2.8-3.7c-0.4-0.7-0.8-1.6-1.6-1.9c-0.4-1.2-1.3-2.1-2-3.1
					c-3.1-4.4-6-8.9-9.5-13c-0.9-1.1-1.6-2.3-2.8-3c-0.9-0.6-1.6-0.3-1.6,0.8c0,1.2,0.1,2.4,1,3.3c1.9,2.3,3.7,4.6,5.6,6.9
					c1.6,1.8,2.9,3.9,4.7,5.6c0.5,0.5,0.8,1,1.2,1.5c0.8,1,1.5,2.2,2.5,3c0.2,0.7,0.6,1.3,1.1,1.9c1.5,1.9,2.9,4,4.2,6.1
					c-0.1,0.3-0.1,0.5-0.2,0.8c-0.6-0.2-0.7-0.7-1.1-1c-1.2-1.2-1.6-2.9-2.8-4.1c-1.2-1.9-2.7-3.7-4.1-5.5c-0.6-0.7-1.2-1.4-1.8-2.1
					c-0.2-0.3-0.4-0.8-0.9-0.4c-0.4,0.3-0.1,0.7,0.2,1c0.9,1,0.8,2.3,1.1,3.5c0.2,0.8,0,1.7-1,2.1c-0.9,0.3-1.5,0-2.1-0.8
					c-1.2-1.6-2.5-3.1-4-4.8c1-0.2,1.4,0.5,2,0.5c0.4,0.6,0.8,1.2,1.7,1c0.8-0.2,0.8-1.1,1-1.7c0.1-0.3,0-0.5-0.2-0.7
					c-0.7-2.4-1.8-4.6-3.6-6.3c-0.8-1.7-2.8-3.9-4.1-4.4c0.2,1.4,0.3,2.7,0.6,4.1C261.4,469.6,261.5,471.1,262.3,472.4z
					 M263.1,428.3c-0.2,0.4-0.2,1-0.1,1.6c0.2,1,0.5,1.9,1.4,2.7c1.8,1.6,2.9,3.7,3.8,5.9c0.1,0.3,0.2,0.7,0.6,0.6
					c0.3,0,0.4-0.3,0.4-0.6c0-0.6,0.1-1.2,0.1-1.8c0.4-3.7-0.8-6.8-3.6-9.3C264.5,426.2,263.6,426.4,263.1,428.3z"/>
				<path class="st9" d="M265.7,392.5c0.1-0.3,0.1-0.6-0.2-0.8c0.1-0.5-0.1-1-0.5-1.4c0-0.8-0.1-1.6-0.6-2.2
					c-0.4-2.3-0.9-4.6-1.6-6.9c-0.3-1-0.4-2.1-0.5-3.1c-0.2-3.4-0.9-6.7-1.4-10.1c-0.3-2.1-0.1-4.3-0.5-6.5
					c-0.1-0.3,0.1-0.7,0.4-0.8c0.4-0.1,0.6,0.3,0.6,0.6c0.1,0.4,0.2,0.9,0.1,1.4c-0.1,2.7,0.4,5.4,0.7,8c0,0.2,0.2,0.3,0.3,0.5
					c0.2,2.4,0.6,4.8,1,7.2c0.6,3.5,1.2,7,2.2,10.4c1.6,5.2,3.1,10.5,5.6,15.4c0.2,0.5,0.6,0.9,1,1.2c0.1,1,0.9,1.5,1.6,2.1
					c1.4,1.1,3,0.7,3.9-1.1c0.3-1.3,0.9-2.5,0.7-3.8c0-0.3,0.1-0.5,0.4-0.6c0.3-0.1,0.5,0.2,0.6,0.4c0.5,1,0.4,2,0.6,3
					c-0.2,2.5-0.6,4.9-1.1,7.4c-0.5,2.5-0.2,5,1,7.3c1.3,2.5,3.5,2.7,5.4,0.6c0.3-0.4,0.8-0.7,0.8-1.3c0.6-1.5,0.8-3.1,0.9-4.7
					c-0.3-1.9-0.5-2.2-2.2-2.3c-1.4-0.1-2.1-0.8-2.3-2.2c-0.2-1.1,0-2.1,0.5-3.1c2.9-0.5,4,1,5,3.8c0.5,1.3,0.6,2.6,0.9,4
					c0,1.1,0,2.2,0,3.2c-0.6,2.1-1,4.2-1.7,6.3c-1,2.9-4.4,3.6-6.3,1.2c-0.9-1.2-1.7-2.5-2.1-4c-0.7-2.3-1.1-4.7-1.6-7.1
					c0.2-0.6,0.2-1.3-0.6-1.4c-2.4-0.1-3.5-2-4.7-3.7c-0.4-0.5-0.7-1.1-1.1-1.6c-1.2-2.6-2.5-5.1-3.3-7.9c-0.6-1.9-1-3.9-1.4-5.9
					C266.2,393.5,266.2,392.9,265.7,392.5z"/>
				<path class="st9" d="M257.9,407.3c0,0.2-0.1,0.4-0.1,0.6c-0.1,0.3-0.1,0.7-0.5,0.7c-0.4,0-0.5-0.3-0.7-0.6
					c-1.3-3.5-1.2-7.1-1-10.7c0.1-1,0.9-1.9,1.8-2.4c0.8-0.5,1.7-0.3,2.1,0.3c2,2.8,3.6,5.8,2.5,9.5c-0.5,1.6-0.6,1.6-2.4,1.3
					c-0.7-0.9-1.3-1.7-1.1-3c0.3,0,0.6,0,0.8,0c1.7-0.2,2.3-1.3,1.6-2.9c-0.6-1.3-1.7-2-2.8-1.8c-1,0.2-1.7,1.2-1.7,2.8
					c0.1,1.7,0.4,3.4,0.6,5C257.2,406.8,257.5,407.1,257.9,407.3z"/>
				<path class="st9" d="M250.5,460.4c0.2-0.4,0.1-0.6,0-0.9c-0.1-0.3-0.2-0.5,0.1-0.7c0.3-0.2,0.6-0.1,0.9,0.2
					c0.6,0.7,1.2,1.4,1.7,2.2c0.6,1.2,1.3,2.3,2,3.4c0.2,0.4,0.6,1,0.2,1.2c-1.2,0.7-0.3,1.4,0,2.4c-1.7-0.6-3.2-1-4.5-1.9
					c-0.4-0.3-0.7-0.9-0.4-1.2c1.2-1.4,0-2-0.8-2.7c-0.7-0.6-1.1-1.5-1.5-2.3c-0.1-0.2-0.3-0.5,0-0.7c0.3-0.3,0.6-0.1,0.9-0.1
					C249.6,459.4,249.8,460.3,250.5,460.4z"/>
				<path class="st9" d="M238.9,431.8c-1-0.6-1.5-1.5-1.4-3C238.7,429.7,238.7,430.8,238.9,431.8z"/>
				<path class="st9" d="M239,432.9c1,0.6,1,0.6,1.3,1.9C239.2,434.5,239.3,433.6,239,432.9z"/>
				<path class="st9" d="M304.7,359.1c-0.7,1.3-1.1,2.7-2,3.9c-1.2,0.5-2.2,1.4-3.6,1.5c-0.4,0-0.6,0.3-0.7,0.6
					c-0.3,1.2-0.9,2.3-0.5,3.6c-0.1,0.4-0.1,0.8-0.2,1.2c-1.7,4.6-4.3,8.7-6.9,12.8c-1.7,2.7-3.1,5.5-4.3,8.4
					c-1.1,2.9-2.1,5.8-3.2,8.7c-0.1,0.4-0.2,0.9-0.7,0.8c-0.6,0-0.7-0.6-0.7-1c-0.5-2.6-1.8-4.8-3.1-7c-0.3-0.5-0.6-0.8-1-1.2
					c-1.2-1.1-2.4-0.8-3,0.8c-0.4,1.1-0.5,2.2-0.4,3.3c0,0.3,0.1,0.7-0.4,0.8c-0.4,0.1-0.6-0.3-0.7-0.6c-0.6-1.7-0.5-3.5-0.2-5.3
					c0.1-0.7,0.3-1.4,0.5-2.1c0.6-1.9,1.3-2.4,3.3-2.2c0.8,0.1,1.1-0.1,1.1-0.9c-0.1-1.9-0.2-3.8-0.5-5.7c-1.2-5.9-1.9-12-2.3-18
					c-0.2-2.7,0.4-5.4,1.3-7.9c0.6-1.8,2.2-2.7,3.9-2.8c1.3,0,2,0.7,2.3,1.7c0.8,2.6,1.2,5.1,0.1,7.7c-0.6,1.6-1.7,2.3-3.4,2.2
					c-1.1-1.5-1.5-3-0.7-4.8c0.5,0.1,0.6,0.5,0.9,0.8c0.2,0.3,0.5,0.4,0.9,0.3c0.9-0.2,1.9-1.7,1.8-2.6c-0.1-0.8-1.3-1.7-2.2-1.7
					c-0.9,0-1.6,0.5-2.1,1.3c-1.3,2.3-2.1,4.6-1.2,7.3c-0.4,1,0,1.9,0.1,2.9c0.3,3.5,1,6.9,1.5,10.3c0.1,0.4,0.1,0.9,0.4,1.3
					c0.6,0.1,0.7-0.5,0.8-0.7c0.8-1.5,2.2-1.9,3.6-1.8c1,0,1.3-0.1,1.2-1.1c-0.1-1.5-0.1-3,0-4.5c0.1-2.3,1.2-4.1,2.8-5.5
					c1.9-1.8,5.2-0.6,6.2,2c0.6,1.4,1.1,2.9,1.1,4.8c0.9-0.8,1.3-1.5,1.5-2.3c0.2-0.6,0.4-1.1,0.8-1.5c1-1.1,1-2.2,0-3.3
					c-2.4-2.7-2.8-5.8-2.1-9.2c0.4-1.7,0.3-3.4,1.4-4.9c0.3-0.4,0.5-0.8,0.8-1.2c0.7-0.8,1.7-1.3,2.2-0.9c0.7,0.5,0.7,1.3,0.6,2.1
					c-0.2,1.1-0.8,2-1.8,2.4c-2.8,1.1-3.3,4.3-1.4,6.9c1.2,1.6,3.3,1.9,5.1,0.8c0.6-0.4,1.3-0.8,1.5-1.5c0.7-0.6,1.1-1.3,1.2-2.2
					c0.2,0.1,0.4,0.1,0.6,0.2C304.9,357.2,304.8,358.2,304.7,359.1z M281.6,392.7c-0.1,0.8,0.2,1.5,0.8,2.2c0.4-0.6,0.9-1.1,1-1.7
					c0.8-2.2,1.5-4.4,2.4-6.6c1-2.5,0.9-3.9-0.9-5.6c-1.4-1.3-3.1-1.3-4.3,0.1c-0.7,0.8-1.2,1.7-1.1,2.8
					C279.4,387,280.4,389.8,281.6,392.7z M287.9,382.2c1.5-2.4,3-4.3,4.1-6.4c1-1.8,1-3.5,0.3-5.3c-0.5-1.3-1.6-2.4-3-2.6
					c-1.5-0.2-2.6,0.8-3.3,2.1c-0.6,1.2-0.6,2.4-0.5,3.6C286.1,376.5,287,379.1,287.9,382.2z"/>
				<path class="st9" d="M293.8,341.6c-0.8-1.3-1.6-2.4-2-3.8c-0.1-0.4-0.3-0.9-0.3-1.3c0-0.5,0.1-1.1,0.7-1.3
					c0.7-0.2,1,0.4,1.1,0.9C293.7,337.9,294.3,339.7,293.8,341.6z"/>
				<path class="st9" d="M300.7,323.3c0.8,0.1,1.3,0.6,1.4,1.4c0.3,1.3,0.5,2.7,0.6,4c0.1,0.5-0.1,0.9-0.6,1.1
					c-0.4-1.2-1.2-2.2-1.5-3.4C300.3,325.3,300.2,324.3,300.7,323.3z"/>
				<path class="st9" d="M438.9,247.5c0,0.2,0,0.5-0.1,0.7"/>
				<path class="st9" d="M438.3,238.1c2.4-0.7,4.6-0.8,6.4,1.2c0,0.3,0,0.7,0.4,0.7c0.3,0,0.4-0.3,0.5-0.5c0.6-0.7,1.2-1.4,1.6-2.2
					c0.7-1.1,1.7-1.6,2.9-1.8c1.9-0.3,3.5,0.4,5.1,1.3c1.5,0.8,1.5,0.8,2.5-0.6c1.9-2.6,3-3,6.1-2.2c0.2,0.1,0.4,0.1,0.6,0.2
					c1.4,0.6,2.6,0.9,3.6-0.6c0.1-0.1,0.3-0.2,0.5-0.3c2.7-0.8,5.5-1.4,8.2,0c0,0.3,0,0.5,0.3,0.7c0.7,0.3,0.6,0.9,0.4,1.4
					c-0.6-0.2-1.2-0.5-1.8-0.7c-0.6-1.1-0.9-1.1-2-0.5c-1.7,0-3.4-0.1-5,0.9c-0.7,0.5-0.9,1-0.3,1.6c0.7,0.8,1.2,1.7,1.8,2.6
					c0,0.2-0.1,0.5-0.1,0.7c-0.5,0.1-0.8,0.7-1.4,0.5c-0.2-0.2-0.3-0.4-0.5-0.6c-1.3-2.3-3.3-3.5-5.8-4c-1.5-0.3-3.1,0.2-3.5,1.2
					c-0.6,1.5-1,3-0.2,4.5c-0.1,0.5-0.2,0.9-0.3,1.4c-0.5-0.1-1-0.2-1.5-0.3c-1.1-2.7-3.1-4.3-5.9-4.8c-2.2-0.4-4.3,1.1-4.7,3.3
					c-0.2,1.1-0.2,2.2,0.2,3.3c-0.1,0.5-0.2,1-0.2,1.5c-0.5-0.1-1.1-0.3-1.6-0.4c-0.1-0.1-0.1-0.1-0.2-0.2c-0.1-1.4-0.7-2.7-1.5-3.8
					c-1.6-2.1-2.4-2.5-4.2-1"/>
				<path class="st9" d="M473,226.3c-0.3,0.6-0.6,1.1-1,1.7c-0.4,0.6-0.9,0.5-1.3,0.1c-0.7-0.8-0.2-1.6,0-2.4
					c0.3-0.8,0.9-0.5,1.5-0.4c0.2,0.1,0.4,0.1,0.6,0.2C472.8,225.7,472.9,226,473,226.3z"/>
				<path class="st11" d="M506.3,262.9c0-1.1,0.7-1.9,1.1-2.7c2.5-4.9,2.3-9.7,0.1-14.6c-0.2-0.5-0.4-1.1-1.1-0.7
					c-1.8,1-3.3,0-4.9-0.6c-1-0.4-1.8-1-2.7-1.6c-0.8-0.5-1.4-0.6-2.1,0.1c-0.7,0.8-1.6,0.9-2.5,0.8c-1.6-0.3-3.4-0.3-4.6-1.7
					c0.1-0.5,0.3-0.9,0.4-1.3c0.5,0.2,1,0.3,1.4,0.6c0.7,0.5,1.6,0.7,2.4,0.8c1.6,0.3,2.4-0.4,2.2-2c-0.1-0.9-0.4-1.8-0.4-2.7
					c0-0.7-0.4-1.1-1-1.2c-1.7-0.4-3.4-1.1-5.2-0.9c-0.5-0.1-1-0.2-1.5-0.3c0.1-0.5,0.2-1.1,0.4-1.6c2.3,0.1,4.5,0.7,6.7,1.3
					c2,0.6,4,1.1,6.1,1.6c0.6,0.2,1.3,0.3,1.9,0.5c1.2,0.5,2.3,1.1,3.6,1.4c1.1,0.2,1.1,0.3,0.4,1.3c-0.2,0.3-0.4,0.5-0.2,0.9
					c1,2.3,2.1,4.6,3.1,6.9c0.2,0.9,0.3,1.8,0.5,2.7c0.6,2.5,0.5,5-0.2,7.5c-0.5,2-1.5,3.7-2.5,5.5
					C507.3,263,506.8,263.1,506.3,262.9z M501.5,237.4C501.5,237.4,501.5,237.4,501.5,237.4c-0.8-0.2-1.7-0.5-2.5-0.5
					c-1.5-0.1-2,0.6-1.2,1.9c1.4,2.4,3.5,4.1,6.2,4.9c1.4,0.4,2-0.1,1.9-1.6c-0.2-2.7-1.3-3.9-3.9-4.6
					C501.7,237.5,501.6,237.5,501.5,237.4z"/>
				<path class="st11" d="M366.5,334.5"/>
				<path class="st11" d="M481.7,259.8c-0.1,1.1-0.8,1.7-1.7,2.3c-0.3-0.1-0.7-0.2-1-0.4c0.9-1,1.7-2,2.6-3
					C481.8,259,481.8,259.4,481.7,259.8z"/>
				<path class="st11" d="M483.7,255.6c0.2,0.4,0.3,0.7,0.5,1.1c-0.3,0.6-0.6,1.2-1,1.7c-0.1-0.3-0.3-0.5-0.4-0.8
					C482.6,256.7,483.4,256.2,483.7,255.6z"/>
				<path class="st11" d="M477.5,263.3c0.4,0.1,0.7,0.2,1.1,0.3c-0.4,0.5-0.8,0.8-1.3,0.1C477.3,263.6,477.4,263.5,477.5,263.3z"/>
				<path class="st11" d="M487,239.7c0.5,0.1,0.7,0.4,0.6,0.9C487.1,240.5,486.9,240.2,487,239.7z"/>
				<path class="st11" d="M513.1,246.3c-2-4.1-4.1-8.2-6.6-12.1c-0.3-1.9-1.6-3.3-2.2-5c-0.4-1.1-0.6-2.2-0.8-3.3
					c-0.1-0.4,0-0.7,0.4-0.8c0.4-0.1,0.8,0.2,0.9,0.6c0.1,0.2,0.1,0.5,0.1,0.8c0.1,1.1,0.3,2.1,0.8,3c1.2,2.3,2.1,4.8,3.9,6.8
					c0.6,1.4,1.3,2.7,2.2,3.8c0.2,0.4,0.4,0.8,0.6,1.2c0.3,0.7,0.7,0.6,1.2,0.1c1.6,0.2,3,1,4.2,2c1.3,1.2,2.8,2.1,4.5,2.7
					c1.2,0.4,1.6,1.1,1.9,2.2c-0.4,0-0.9-0.4-1.3,0.3c0.9,0.8,1.2,1.9,2,2.8c-0.1,0.8-0.5,1.5-1.4,1.1c-1.6-0.7-3-1.7-4.3-3
					c-0.2-0.3-0.2-0.6-0.1-0.9c1.4,0.3,2.2,1.8,3.8,2.2c-0.7-2.1-2-3.4-3.5-4.6c-0.5-0.7-1.2-1.3-2-1.8c-0.8-0.7-1.7-1.9-2.7-1
					c-0.9,0.8-0.4,2,0.4,2.9c-0.1,0.7,0.1,1.9-0.7,1.9c-1,0.1-0.8-1.2-1.1-1.9C513.2,246.4,513.2,246.3,513.1,246.3z"/>
				<path class="st11" d="M486.7,233c0.2-0.1,0.4-0.2,0.5-0.3c0.1,0.1,0.3,0.1,0.4,0.2C487.4,233.4,487.1,233.8,486.7,233z"/>
				<path class="st11" d="M453.1,244c0.7,0.4,1.4,0.2,2.1,0.2c1.2,0,1.9-0.5,2-1.8c0.5,0.1,1,0.2,1.5,0.3c-0.5,2.6-3.3,4.6-5.9,4.2
					c-0.9-0.1-1.8-0.9-1.7-1.6C451.1,244.3,451.6,244,453.1,244z"/>
				<path class="st11" d="M446.6,245.6c0.4,1-0.1,1.8-0.5,2.6c-0.1,0.2-0.4,0.4-0.7,0.3c-0.3,0-0.4-0.3-0.4-0.6
					c0-0.9-0.1-1.8-0.1-2.7C445.5,245.3,446,245.5,446.6,245.6z"/>
				<path class="st11" d="M444.8,239.1c0.3,0.1,0.6,0.1,0.9,0.2c-0.1,0.2-0.2,0.5-0.5,0.5C444.8,239.8,444.9,239.4,444.8,239.1z"/>
				<path class="st10" d="M262.4,421.7c-0.2,0.1-0.4,0.2-0.6,0.3c-0.3-0.8-0.4-1.7-0.9-2.3c-1.5-2.1-1.6-4.6-2.4-6.8
					c-0.1-0.2-0.1-0.4-0.1-0.6c0-0.1,0.1-0.2,0.2-0.3c0.6,0.3,0.7,1,0.8,1.5c0.4,2.2,1.3,4.2,2.4,6.2
					C262.3,420.3,262.4,421,262.4,421.7z"/>
				<path class="st10" d="M258.1,410c0.1,0.1,0.3,0.3,0.4,0.4c0.1,0.2,0.2,0.5-0.1,0.6c-0.3,0.1-0.4-0.2-0.4-0.5
					C258,410.3,258.1,410.2,258.1,410L258.1,410z"/>
				<path class="st10" d="M265.7,423.1c0.2,0.2,0.3,0.5,0,0.6c-0.5,0.1-0.4-0.4-0.4-0.7C265.4,423,265.6,423,265.7,423.1z"/>
				<path class="st10" d="M258.1,410c0-0.1-0.1-0.1-0.1-0.2c0,0,0.1,0,0.1,0.1C258.1,409.9,258.1,409.9,258.1,410
					C258.1,410,258.1,410,258.1,410z"/>
				<path class="st10" d="M488.6,233.6c-0.1,0.5-0.2,1.1-0.4,1.6c-1.1,1.7-1.1,1.7-0.1,3.2c0.1,1.4,1.6,1.6,2.2,2.6
					c-0.1,0.4-0.3,0.9-0.4,1.3c-0.7-0.4-1.4-0.8-2.1-1.2c0.1-0.5-0.1-0.8-0.6-0.9c-0.3-0.2-0.6-0.5-0.9-0.7c-0.3-1.1-0.5-2.3,0-3.5
					c0.2-0.6,0-0.9-0.6-1.2c-1.8-0.9-3,0.1-4.5,0.9c0.3,0.5,0.6,0.7,0.7,1.1c0.6,1.4,1.1,2.8-0.2,4.2c-0.6,0.6-0.5,1.2,0.3,1.5
					c0.7,0.3,1.2,0.9,1.9,1c3.1,2.8,3.8,6.2,2.6,10.1c-0.3,0.9-1.3,1.5-1.1,2.6c-0.1,0.2-0.2,0.4-0.3,0.7c-0.5-0.3-0.6,0-0.7,0.4
					c-0.2-0.4-0.3-0.7-0.5-1.1c0.1-0.3,0.1-0.7,0.3-0.9c1.1-1.6,1.4-3.4,1.1-5.3c0.1-0.8,0-1.6-0.4-2.3c-1.4-2.3-3.6-3.6-6.3-3.8
					c-0.8-0.1-1.6,0.1-2,0.9c-0.9-0.1-0.9-0.7-0.7-1.4c0.7-0.5,1.4-1,2-1.5c0.9-0.1,1.6-0.6,2.2-1.2c1-0.8,1.1-1.4,0.3-2.5
					c-0.7-0.9-1.7-1.6-2.5-2.4c0.2-0.6,0.3-1.1-0.4-1.4c-0.2-0.1-0.3-0.4-0.3-0.7c0.8,0,1.3,0.7,2,0.8c0.6,0.1,1.2,0.3,1.7-0.1
					c1.9-1.4,4-1,6.2-0.8c0.4,0.7,0.7,0.4,0.9-0.1C488.1,233.5,488.4,233.5,488.6,233.6z"/>
				<path class="st10" d="M479.3,262.1c0.3,0.1,0.7,0.2,1,0.4c-0.3,0.7-1.1,1-1.5,1.6c-0.4-0.1-0.7-0.2-1.1-0.3
					c0.1-0.2,0.2-0.5,0.2-0.7C478.4,262.8,478.8,262.5,479.3,262.1z"/>
				<path class="st10" d="M483.1,258c0.1,0.3,0.3,0.5,0.4,0.8c-0.3,0.7-1,1-1.6,1.4c0.1-0.4,0.2-0.7-0.1-1.1
					C482,258.5,482.7,258.5,483.1,258z"/>
				<path class="st10" d="M352.2,324.9c0.1,3,0.1,6,0.1,9c-0.2,1.9-0.3,3.8-0.3,5.7c-0.5,4-0.6,8-1.6,11.8c-0.1,0.6-0.1,1.4-1.1,1.3
					c0-0.7,0-1.3,0-2c0.5-3.1,1-6.1,0.9-9.2c0.1-0.5,0.3-1,0.3-1.5c0-4.5,0.4-9,0-13.5c0.3-0.6,0-1.3,0-1.9"/>
				<path class="st10" d="M342.7,345.3c-0.3,0.9-0.3,1.8-0.4,2.7c-0.2,1.9-0.5,3.7-0.7,5.6c-0.3,0.1-0.5,0.4-0.6,0.7
					c-0.2-0.1-0.4-0.2-0.6-0.3c0.2-2.4,0.6-4.7,0.7-7.1c0.2-0.7,0.3-1.4,0.3-2.1c0.2-1.7,0.1-3.4,0.7-5c0.2,0.1,0.5,0.1,0.7,0.2
					c0.2,0.3,0.2,0.6,0.2,0.9C342.9,342.4,342.8,343.8,342.7,345.3z"/>
				<path class="st10" d="M310.9,363c0.6,0.6,0.5,1.6,0.9,2.3c-0.2,2.1,0.7,4.1,0.8,6.2c0.2,3.3,0.8,6.5,0.8,9.8
					c0,0.7,0.1,1.4,0.2,2.1c-0.3-0.1-0.5-0.1-0.8-0.2c-0.4-3-0.7-6-1.3-9c-0.2-3-0.6-6-1.3-8.9c-0.2-0.8-0.5-1.6-0.3-2.5
					C310.3,362.9,310.6,363,310.9,363z"/>
				<path class="st10" d="M311,342.6c-0.2-0.6-0.5-1.2-0.7-1.8c0.8,0.2,1.3-0.2,1.6-0.9c1.3,1.9,1.4,4.1,1.5,6.3
					c0,0.4-0.2,0.8,0.1,1.1c-0.1,0.4-0.2,0.7-0.3,1.1c-0.3-0.1-0.6-0.3-0.6-0.7C312.4,345.9,311.4,344.3,311,342.6z"/>
				<path class="st10" d="M306,353.5c-0.4,1,0.3,2.2-0.7,3.1c-0.2-0.1-0.4-0.1-0.6-0.2c-0.3-1.1,0.4-2.1,0.5-3.1
					C305.5,353.4,305.8,353.5,306,353.5z"/>
				<path class="st10" d="M309.1,360.5c-0.2-0.1-0.3-0.3-0.2-0.5C309,360.2,309,360.3,309.1,360.5z"/>
				<path class="st10" d="M308.9,359.6c-0.2-0.1-0.3-0.3-0.2-0.5C308.8,359.3,308.8,359.5,308.9,359.6z"/>
				<path class="st10" d="M468.2,222.8c0.9,1,1.4,2.2,1.8,3.4c0.1,0.3,0.1,0.5,0.2,0.8c0.2,0.9-0.4,1.4-0.9,1.9
					c-0.6,0.6-1.1-0.2-1.5-0.5c-1.2-0.9-2.1-2.1-3.6-2.7c-0.2-0.4-0.8-0.6-0.5-1.2c0.3-0.5,0.8-0.3,1.2-0.2c0.9,0.2,1.4,1.1,2.6,1.5
					c-0.2-1.1-1-1.8-1.1-2.7C466.8,222.1,467.5,222.6,468.2,222.8z"/>
				<path class="st10" d="M465,242.3c0.5,0.3,1.1,0.3,1.7,0.3c1.8,0,1.9-0.1,2.4-1.9c0.6,0.2,0.9-0.3,1.4-0.5
					c0.5,1.9-0.4,3.2-1.9,4.1c-1.6,0.9-3.3,1-4.9,0.1c-0.9-0.5-0.7-1.6,0.2-2C464.2,242.2,464.6,242.3,465,242.3z"/>
				<path class="st10" d="M476,234.9c-0.7,0-1.4-0.2-2-0.5C475.1,233.8,475.4,233.9,476,234.9z"/>
			</g>
		</g>
	</g>
</g>
</svg>
