<?xml version="1.0" encoding="iso-8859-1"?>
<!-- Generator: Adobe Illustrator 16.0.0, SVG Export Plug-In . SVG Version: 6.00 Build 0)  -->
<!DOCTYPE svg PUBLIC "-//W3C//DTD SVG 1.1//EN" "http://www.w3.org/Graphics/SVG/1.1/DTD/svg11.dtd">
<svg version="1.1" id="Capa_1" xmlns="http://www.w3.org/2000/svg" xmlns:xlink="http://www.w3.org/1999/xlink" x="0px" y="0px"
	 width="36px" height="20px" viewBox="0 0 36 20" style="enable-background:new 0 0 36 20;"
	 xml:space="preserve">
<g>
	<g id="Artwork_30_">
		<g id="Layer_5_30_">
			<g>
				<path d="M153.968,114.037c-1.18-7.706-2.733-12.419-7.184-13.708L69.035,77.811c-0.642-0.186-1.295-0.28-1.941-0.28
					c-3.727,0-7.147,3.071-11.457,8.027c-3.354,3.86-7.536,9.308-12.093,15.754c-9.083,12.853-17.312,26.286-20.012,32.667
					c-6.069,14.335-4.653,31.263,3.986,47.665c6.396,12.146,19.343,24.885,33.303,32.867c-1.354,6.283-4.832,19.74-9.328,35.072
					c-7.825,26.69-11.874,35.842-12.879,37.318c-0.506,0.288-2.418,0.885-6.569,0.885c-3.213,0-6.981-0.371-10.898-1.07
					l-0.295-0.053c-0.816-0.146-1.771-0.367-2.78-0.602c-2.543-0.589-5.425-1.256-8.199-1.256c-6.405,0-8.825,3.715-9.729,6.83
					c-0.245,0.848-0.298,2.178,0.848,3.701c6.518,8.674,64.362,26.016,82,26.016c1.843,0,6.738,0,7.746-3.479
					c2.64-9.115-6.633-12.355-12.173-14.293c-0.979-0.342-1.903-0.664-2.675-0.979l-0.272-0.11
					c-10.058-4.099-14.341-8.102-14.866-9.178c-0.066-1.801,1.356-11.706,8.805-38.566c4.143-14.941,8.232-28.177,10.402-34.434
					c31.063,1.873,70.107-16.889,75.269-48.193c1.127-6.834,1.35-22.587,0.544-38.309
					C155.362,125.917,154.739,119.077,153.968,114.037z M144.353,144.211c-0.225,2.083-1.314,2.214-1.963,1.98
					c-5.762-2.082-11.756-3.098-18.216-3.098c-9.543,0-18.563,2.201-27.287,4.329c-7.902,1.928-15.367,3.749-22.509,3.75
					c-9.005,0-20.859-2.514-32.697-22.124l-0.406-0.669c-0.322-0.613,0.05-2.018,0.831-3.297
					c8.42-13.847,19.815-29.134,25.125-34.519c0.523-0.53,1.269-0.439,1.678-0.319c17.016,4.968,64.591,18.771,71.784,20.849
					c0.602,0.174,0.845,0.864,0.845,0.864C143.265,117.317,144.595,128.053,144.353,144.211z"/>
			</g>
		</g>
	</g>
</g>
<g>
</g>
<g>
</g>
<g>
</g>
<g>
</g>
<g>
</g>
<g>
</g>
<g>
</g>
<g>
</g>
<g>
</g>
<g>
</g>
<g>
</g>
<g>
</g>
<g>
</g>
<g>
</g>
<g>
</g>
</svg>
